<?xml version="1.0" standalone="no"?>
<!DOCTYPE svg PUBLIC "-//W3C//DTD SVG 20010904//EN"
 "http://www.w3.org/TR/2001/REC-SVG-20010904/DTD/svg10.dtd">
<svg version="1.0" xmlns="http://www.w3.org/2000/svg"
 width="512.000000pt" height="512.000000pt" viewBox="0 0 512.000000 512.000000"
 preserveAspectRatio="xMidYMid meet">
<metadata>
Created by potrace 1.11, written by Peter Selinger 2001-2013
</metadata>
<g transform="translate(0.000000,512.000000) scale(0.100000,-0.100000)"
fill="#000000" stroke="none">
<path d="M3790 4233 c-64 -10 -190 -47 -252 -73 -160 -68 -338 -221 -430 -370
-206 -332 -193 -765 33 -1067 21 -29 39 -56 39 -60 0 -4 -111 -119 -246 -254
l-246 -247 -55 38 c-116 82 -253 120 -416 116 -155 -4 -245 -35 -405 -136 -21
-14 -29 -8 -223 186 l-202 202 37 59 c65 105 89 191 89 323 1 63 -1 124 -4
135 -39 147 -84 229 -174 320 -76 77 -161 130 -265 166 -93 32 -286 32 -379 1
-226 -77 -389 -258 -439 -487 -9 -38 -8 -220 1 -261 36 -168 172 -347 322
-426 109 -57 194 -77 316 -73 57 2 116 6 132 9 58 13 193 76 235 109 10 8 60
-37 213 -189 109 -109 199 -202 199 -207 0 -4 -16 -31 -35 -60 -79 -119 -114
-251 -111 -411 3 -90 8 -127 31 -194 82 -243 271 -420 515 -481 109 -28 277
-23 382 11 285 93 484 342 504 633 11 155 -29 315 -110 439 l-43 64 254 254
c139 139 253 248 253 242 0 -12 135 -101 200 -131 130 -61 232 -84 390 -88
122 -3 146 -1 247 25 187 47 332 130 460 264 119 123 193 252 240 421 33 120
39 310 13 435 -76 369 -358 658 -729 747 -62 15 -283 25 -341 16z m279 -169
c96 -19 138 -34 211 -72 282 -147 448 -427 435 -737 -4 -123 -9 -149 -46 -249
-90 -246 -295 -432 -555 -501 -86 -23 -253 -28 -344 -9 -211 42 -379 152 -504
328 -155 217 -186 491 -86 758 71 191 268 379 469 450 131 46 292 58 420 32z
m-3032 -652 c82 -31 134 -65 190 -124 92 -98 133 -207 128 -345 -5 -178 -102
-331 -260 -411 -157 -79 -385 -58 -505 48 -14 12 -34 30 -46 39 -33 26 -91
117 -114 179 -29 74 -35 196 -15 276 44 170 178 305 348 350 72 20 207 13 274
-12z m1316 -1264 c59 -11 145 -49 206 -91 259 -177 316 -547 124 -795 -116
-149 -286 -228 -473 -217 -95 5 -121 11 -200 47 -192 88 -317 271 -325 478 -5
115 9 180 56 276 115 230 355 348 612 302z"/>
<path d="M3776 3904 c-67 -16 -193 -74 -234 -107 -130 -106 -206 -221 -242
-363 -19 -77 -22 -225 -6 -295 24 -106 90 -223 170 -303 136 -137 290 -199
480 -192 173 6 303 63 428 188 131 131 191 285 184 473 -6 170 -68 308 -191
430 -80 80 -195 144 -302 169 -78 18 -211 18 -287 0z m301 -172 c158 -60 266
-179 308 -338 20 -76 13 -203 -14 -275 -77 -203 -259 -324 -474 -315 -248 11
-441 204 -452 452 -11 230 135 429 358 488 72 20 207 13 274 -12z"/>
<path d="M2126 1983 c-226 -68 -342 -314 -254 -538 33 -85 131 -181 218 -215
205 -79 431 15 519 217 36 83 36 211 1 302 -34 88 -130 186 -215 220 -75 30
-197 36 -269 14z"/>
</g>
</svg>
